<svg width="18" height="17" viewBox="0 0 18 17" fill="none" xmlns="http://www.w3.org/2000/svg">
<path d="M9.09935 0.15C8.92402 0.0500001 8.74468 0 8.56135 0V13.7L12.7113 16.2C12.8947 16.3167 13.0864 16.3667 13.2864 16.35C13.4864 16.3333 13.6614 16.2667 13.8113 16.15C13.9613 16.0333 14.078 15.8877 14.1614 15.713C14.2447 15.5377 14.2613 15.3417 14.2113 15.125L13.1113 10.4L16.7864 7.225C16.953 7.075 17.0574 6.904 17.0993 6.712C17.1407 6.52067 17.128 6.33333 17.0613 6.15C16.9947 5.96667 16.8947 5.81667 16.7614 5.7C16.628 5.58333 16.4447 5.50833 16.2113 5.475L11.3614 5.05L9.48635 0.6C9.40302 0.4 9.27402 0.25 9.09935 0.15Z" fill="#D9DBE9"/>
<path d="M4.41135 16.2L8.56135 13.7V0C8.37802 0 8.19902 0.0500001 8.02435 0.15C7.84902 0.25 7.71968 0.4 7.63635 0.6L5.76135 5.05L0.91135 5.475C0.678016 5.50833 0.494683 5.58333 0.36135 5.7C0.228016 5.81667 0.128016 5.96667 0.0613497 6.15C-0.00531702 6.33333 -0.0176503 6.52067 0.0243497 6.712C0.065683 6.904 0.169683 7.075 0.33635 7.225L4.01135 10.4L2.91135 15.125C2.86135 15.3417 2.87802 15.5377 2.96135 15.713C3.04468 15.8877 3.16135 16.0333 3.31135 16.15C3.46135 16.2667 3.63635 16.3333 3.83635 16.35C4.03635 16.3667 4.22802 16.3167 4.41135 16.2Z" fill="#D9DBE9"/>
</svg>
